<?xml version="1.0" standalone="no"?>
<!DOCTYPE svg PUBLIC "-//W3C//DTD SVG 20010904//EN"
 "http://www.w3.org/TR/2001/REC-SVG-20010904/DTD/svg10.dtd">
<svg version="1.0" xmlns="http://www.w3.org/2000/svg"
 width="700.000000pt" height="700.000000pt" viewBox="0 0 700.000000 700.000000"
 preserveAspectRatio="xMidYMid meet">
<metadata>
Created by potrace 1.11, written by Peter Selinger 2001-2013
</metadata>
<g transform="translate(0.000000,700.000000) scale(0.100000,-0.100000)"
fill="#000000" stroke="none">
<path d="M2827 5544 c-1 -1 -51 -5 -112 -9 -60 -3 -128 -8 -150 -10 -76 -8
-192 -24 -215 -30 -8 -2 -35 -7 -60 -10 -77 -11 -249 -55 -385 -100 -270 -89
-538 -235 -720 -395 -372 -326 -583 -751 -632 -1273 -9 -98 -10 -670 -1 -732
4 -27 10 -70 13 -95 10 -74 63 -279 96 -370 63 -172 154 -341 260 -480 106
-140 180 -213 383 -377 11 -9 61 -42 110 -73 225 -141 518 -254 806 -310 30
-5 66 -13 80 -15 44 -9 73 -14 129 -20 30 -4 63 -8 74 -11 130 -25 785 -24
915 1 10 2 43 6 73 10 30 3 66 8 82 11 58 9 94 15 152 25 33 6 76 13 95 16 19
2 46 6 60 8 136 20 432 26 575 11 97 -9 213 -30 320 -58 123 -31 243 -56 310
-63 22 -3 63 -8 90 -11 169 -20 414 4 576 57 254 83 477 278 589 513 59 124
88 225 106 371 3 30 13 284 16 420 3 131 -16 282 -57 463 -53 228 -258 659
-444 927 -37 54 -184 246 -204 267 -7 7 -25 29 -41 48 -144 177 -452 476 -671
651 -216 174 -487 333 -710 417 -164 62 -482 144 -650 167 -22 3 -47 8 -55 10
-8 2 -40 7 -70 10 -30 3 -68 8 -83 11 -15 2 -53 6 -85 9 -31 2 -95 7 -142 11
-78 6 -418 12 -423 8z"/>
</g>
</svg>
